<?xml version="1.0" standalone="no"?>
<!DOCTYPE svg PUBLIC "-//W3C//DTD SVG 20010904//EN"
 "http://www.w3.org/TR/2001/REC-SVG-20010904/DTD/svg10.dtd">
<svg version="1.0" xmlns="http://www.w3.org/2000/svg"
 width="1024.000000pt" height="1024.000000pt" viewBox="0 0 1024.000000 1024.000000"
 preserveAspectRatio="xMidYMid meet">

<g transform="translate(0.000000,1024.000000) scale(0.100000,-0.100000)"
fill="#000000" stroke="none">
<path d="M4840 8949 c-148 -32 -193 -45 -265 -77 -122 -54 -233 -131 -332
-228 -173 -171 -252 -326 -304 -597 -40 -207 -16 -393 76 -601 76 -171 246
-382 386 -477 33 -22 101 -60 152 -85 76 -36 111 -47 197 -58 240 -33 355 -30
569 16 274 58 483 221 660 516 59 99 85 173 107 307 65 410 -51 759 -343 1027
-126 116 -298 206 -465 243 -86 20 -371 29 -438 14z m-140 -204 c0 -2 -17 -27
-37 -54 -126 -166 -211 -405 -229 -638 l-7 -93 -163 0 c-191 0 -177 -11 -145
125 71 296 214 478 486 622 78 41 95 48 95 38z m693 -26 c73 -38 212 -136 276
-195 71 -66 161 -195 197 -286 20 -49 73 -250 74 -278 0 -3 -71 -4 -158 -4
l-157 2 -3 38 c-9 146 -74 398 -130 509 -30 61 -114 186 -136 204 -15 13 -22
31 -11 31 3 0 25 -10 48 -21z m-164 -139 c111 -147 178 -311 206 -501 8 -59
15 -109 15 -113 0 -3 -76 -6 -170 -6 l-170 0 0 377 0 377 31 -30 c17 -16 56
-63 88 -104z m-299 -83 c0 -112 3 -279 7 -370 l6 -167 -173 0 -172 0 6 58 c21
181 69 361 123 465 33 63 171 217 194 217 5 0 9 -92 9 -203z m-508 -764 c29
-261 143 -554 262 -676 l44 -46 -31 5 c-88 16 -237 105 -318 190 -141 149
-227 305 -264 480 -25 120 -39 110 143 108 l157 -3 7 -58z m511 -158 c8 -316
4 -525 -9 -525 -17 0 -138 131 -168 182 -76 131 -141 337 -153 486 l-6 84 165
-3 166 -4 5 -220z m512 168 c-26 -268 -105 -472 -234 -606 -37 -40 -88 -77
-103 -77 -2 0 -2 166 0 370 l2 370 170 0 170 0 -5 -57z m481 5 c-11 -83 -45
-206 -75 -273 -89 -196 -274 -382 -437 -442 -86 -31 -99 -30 -67 5 91 96 184
266 226 412 28 97 57 255 57 312 l0 38 151 0 152 0 -7 -52z"/>
<path d="M6215 8819 c-94 -47 -139 -129 -133 -244 3 -62 7 -77 39 -120 64 -90
182 -129 273 -91 47 20 114 82 138 130 44 85 21 221 -49 288 -60 58 -191 76
-268 37z m172 -141 c35 -36 40 -89 13 -133 -12 -19 -35 -42 -51 -50 -25 -13
-33 -13 -61 -2 -41 17 -52 31 -71 86 -19 57 -13 77 32 107 45 30 103 27 138
-8z"/>
<path d="M6630 8406 c0 -13 16 -48 36 -77 54 -78 82 -145 95 -229 32 -209 -41
-420 -222 -635 -147 -175 -295 -294 -556 -446 -334 -195 -488 -258 -722 -301
-94 -17 -160 -21 -351 -22 -206 -1 -261 2 -444 27 -248 34 -352 59 -518 124
-350 139 -551 441 -484 728 16 66 16 70 -1 83 -10 7 -31 12 -47 10 -37 -4 -62
-49 -88 -157 -22 -94 -24 -270 -3 -357 66 -282 295 -488 690 -621 295 -99 694
-127 1097 -78 571 69 1121 330 1480 701 55 57 210 262 257 339 40 65 75 150
98 236 24 88 23 273 -1 354 -39 130 -125 247 -234 316 -57 36 -82 38 -82 5z"/>
<path d="M6374 7976 c-19 -19 -34 -42 -34 -53 0 -43 62 -93 115 -93 30 0 85
49 85 75 0 29 -30 74 -60 90 -44 23 -69 18 -106 -19z"/>
<path d="M3545 7914 c-33 -35 -35 -114 -5 -144 63 -63 160 -16 160 78 0 79
-103 122 -155 66z"/>
<path d="M9260 5931 c-35 -4 -55 -11 -54 -18 3 -36 4 -37 16 -25 29 29 38 13
38 -63 0 -60 3 -75 15 -75 15 0 20 39 15 112 -1 26 1 27 29 22 24 -5 31 -3 31
9 0 25 -11 47 -24 45 -6 -1 -36 -4 -66 -7z"/>
<path d="M9380 5845 c0 -88 1 -95 20 -95 16 0 21 9 26 52 l7 51 19 -36 c10
-21 22 -37 25 -37 4 0 17 12 30 28 l22 27 1 -37 c0 -30 4 -38 19 -38 14 0 20
10 25 46 3 26 6 64 6 85 0 35 -3 39 -24 39 -17 0 -31 -11 -46 -35 -26 -43 -38
-41 -65 8 -14 26 -27 37 -42 37 -22 0 -23 -3 -23 -95z"/>
<path d="M4260 5919 c-132 -22 -256 -112 -313 -228 -31 -63 -32 -70 -32 -186
0 -153 20 -207 107 -301 107 -114 267 -172 400 -145 154 30 291 129 351 250
30 63 32 72 32 181 0 114 0 115 -39 188 -68 127 -175 208 -315 238 -74 15
-111 16 -191 3z m218 -199 c171 -74 204 -301 62 -423 -84 -72 -199 -83 -308
-31 -59 29 -95 70 -123 144 -53 140 20 282 171 331 42 14 142 3 198 -21z"/>
<path d="M1290 5482 l0 -439 53 -6 c28 -4 69 -4 90 0 l37 6 0 173 0 173 53 6
c28 3 102 5 162 3 l110 -3 5 -172 c3 -98 9 -176 15 -182 7 -7 41 -8 94 -4 l83
6 -6 30 c-3 16 -6 213 -6 438 l0 409 -90 0 -90 0 0 -169 0 -169 -112 -7 c-62
-4 -137 -5 -166 -3 l-53 3 -2 170 -2 170 -87 3 -88 3 0 -439z"/>
<path d="M2102 5483 l3 -438 302 0 303 0 0 88 c0 76 -2 87 -17 88 -10 0 -36 1
-58 3 -22 1 -109 3 -192 4 l-153 2 0 80 0 80 185 0 185 0 0 85 0 85 -182 2
-183 3 -3 82 -3 83 208 2 208 3 3 93 3 92 -306 0 -305 0 2 -437z"/>
<path d="M2808 5913 c-8 -16 -10 -631 -3 -751 l8 -122 253 1 254 1 0 83 c0
100 11 95 -187 95 l-143 0 -1 238 c-1 130 -4 287 -8 347 l-6 110 -82 3 c-45 1
-83 -1 -85 -5z"/>
<path d="M3380 5587 c0 -184 3 -382 7 -440 l6 -107 259 0 c209 0 260 3 264 14
3 7 1 46 -3 87 l-8 74 -172 3 -173 2 0 178 c0 97 -3 255 -7 350 l-6 172 -84 0
-83 0 0 -333z"/>
<path d="M5893 5890 c-6 -27 -131 -469 -137 -485 -4 -12 -4 -12 -51 140 -20
66 -53 174 -74 240 l-38 120 -64 3 -64 3 -14 -58 c-11 -49 -62 -225 -91 -313
-27 -80 -48 -131 -53 -124 -2 5 -12 43 -22 84 -9 41 -40 150 -68 242 l-52 168
-82 0 c-66 0 -83 -3 -83 -14 0 -75 223 -793 261 -839 10 -13 29 -22 46 -23 15
0 35 -2 42 -5 11 -3 31 43 77 181 35 102 68 210 74 240 7 30 15 60 19 67 3 7
42 -94 86 -224 44 -130 85 -242 92 -248 15 -15 94 -28 104 -18 9 9 92 248 145
418 19 61 57 181 84 268 28 86 50 166 50 176 0 18 -9 20 -90 23 -90 3 -91 3
-97 -22z"/>
<path d="M6372 5901 c-71 -21 -159 -77 -203 -130 -16 -20 -44 -65 -62 -101
-31 -62 -32 -70 -32 -185 0 -116 1 -123 33 -188 61 -122 165 -205 307 -241
107 -28 198 -16 308 42 152 79 237 222 237 395 0 160 -103 317 -256 392 -52
26 -71 30 -164 32 -79 2 -121 -2 -168 -16z m254 -184 c17 -8 49 -35 72 -59
105 -107 96 -283 -18 -380 -124 -107 -342 -57 -403 92 -56 138 5 309 126 354
53 20 179 16 223 -7z"/>
<path d="M7047 5906 c-9 -22 -9 -803 -1 -845 6 -31 7 -31 68 -31 112 0 106 -7
106 141 l0 129 59 0 c33 0 66 3 75 6 10 4 20 -5 32 -28 9 -18 46 -79 82 -135
l65 -103 99 0 c74 0 98 3 98 13 0 7 -16 40 -37 73 -106 173 -133 218 -133 226
0 5 15 18 34 29 74 44 121 151 114 259 -6 82 -36 139 -102 197 -71 62 -120 74
-352 80 -184 5 -201 4 -207 -11z m403 -181 c64 -33 87 -103 59 -184 -17 -49
-52 -61 -172 -61 l-104 0 -6 83 c-4 45 -7 103 -7 130 l0 47 100 0 c70 0 110
-5 130 -15z"/>
<path d="M7810 5541 c0 -208 3 -406 6 -440 l7 -62 269 3 269 3 -3 85 -3 85
-178 0 -177 0 0 353 0 352 -95 0 -95 0 0 -379z"/>
<path d="M8430 5494 c0 -236 4 -435 9 -442 7 -11 43 -12 197 -4 212 11 277 28
384 100 105 72 160 183 160 327 0 144 -73 289 -184 362 -89 61 -158 75 -373
81 l-193 4 0 -428z m413 222 c36 -15 101 -78 123 -118 21 -40 28 -136 14 -187
-33 -124 -137 -191 -297 -191 l-63 0 0 208 c0 114 -3 231 -7 261 l-6 54 102
-6 c56 -4 116 -13 134 -21z"/>
<path d="M1383 4773 c-29 -6 -83 -68 -83 -95 0 -11 17 -38 39 -59 32 -32 46
-39 78 -39 25 0 53 9 74 23 28 19 35 30 37 64 5 73 -63 124 -145 106z"/>
<path d="M8864 4746 c-38 -38 -43 -72 -18 -112 51 -78 181 -66 222 20 30 61
-32 126 -121 126 -42 0 -54 -5 -83 -34z"/>
<path d="M1811 4759 c-86 -18 -116 -85 -62 -139 24 -25 38 -30 77 -30 30 0 59
7 81 22 33 19 35 24 30 60 -9 67 -59 102 -126 87z"/>
<path d="M4315 4763 l-1680 -3 -17 -21 c-24 -28 -23 -91 1 -120 l19 -24 2609
3 2608 3 29 28 c33 33 31 63 -7 106 l-22 25 -930 2 c-511 2 -1686 2 -2610 1z"/>
<path d="M8514 4760 c-30 -12 -64 -58 -64 -87 0 -38 60 -93 102 -93 46 0 108
51 108 89 0 36 -26 70 -66 87 -38 16 -50 16 -80 4z"/>
<path d="M2148 4743 c-45 -52 -48 -85 -9 -124 29 -28 32 -29 130 -29 97 0 100
1 121 28 28 34 22 98 -10 124 -32 26 -210 26 -232 1z"/>
<path d="M8080 4740 c-31 -31 -36 -68 -13 -98 39 -52 105 -66 168 -37 59 29
67 74 24 129 -18 24 -27 26 -90 26 -55 0 -73 -4 -89 -20z"/>
<path d="M4186 4351 c-28 -30 -24 -80 8 -108 24 -20 38 -23 114 -23 48 0 92
-4 98 -8 14 -8 67 -202 89 -327 18 -97 87 -384 103 -425 5 -14 19 -33 30 -44
20 -17 34 -18 315 -7 161 6 354 11 429 11 117 0 137 2 151 18 21 23 44 88 63
177 8 39 33 143 55 232 22 89 41 176 41 192 2 64 28 61 -554 61 -414 0 -529 3
-532 13 -13 48 -68 215 -75 226 -12 18 -94 29 -222 30 -82 1 -98 -2 -113 -18z
m1019 -583 c-4 -106 -9 -196 -12 -200 -2 -5 -28 -8 -57 -8 l-53 0 -7 77 c-3
42 -6 127 -6 189 0 127 -5 118 80 127 19 2 41 5 48 5 11 2 12 -33 7 -190z
m-425 180 c0 -2 7 -41 15 -88 8 -47 15 -112 15 -145 0 -129 63 -107 74 25 15
183 19 210 32 210 14 0 16 -14 34 -210 6 -69 14 -137 17 -152 l5 -28 -93 -2
c-52 0 -107 -2 -122 -3 -41 -3 -52 20 -82 175 -14 74 -30 154 -34 178 l-9 42
74 0 c41 0 74 -1 74 -2z m688 -180 c-21 -101 -40 -189 -43 -195 -3 -8 -23 -13
-52 -13 l-48 0 7 113 c3 61 9 148 13 193 l7 81 77 2 78 1 -39 -182z"/>
<path d="M6792 4075 c-47 -53 -76 -108 -140 -270 -157 -391 -332 -755 -424
-879 -70 -95 -71 -90 -23 175 38 217 61 293 129 424 37 73 46 101 48 150 3 55
1 60 -17 57 -53 -9 -102 -73 -209 -269 -58 -108 -82 -151 -131 -233 -18 -30
-67 -114 -110 -187 -77 -131 -135 -204 -135 -171 0 32 31 164 57 243 60 183
234 598 332 793 36 71 38 92 13 115 -24 22 -55 22 -74 0 -13 -16 -108 -214
-108 -227 0 -3 -27 -61 -59 -129 -62 -130 -153 -365 -217 -557 -34 -103 -38
-126 -38 -220 -1 -88 2 -111 19 -140 16 -27 29 -36 53 -38 39 -4 67 23 125
123 22 39 76 126 120 195 44 69 91 149 104 178 14 28 26 52 28 52 3 0 -2 -20
-40 -167 -31 -123 -12 -284 40 -333 24 -23 28 -23 52 -10 42 24 158 173 221
284 63 111 181 357 217 451 68 176 171 403 225 494 55 95 57 131 6 131 -26 0
-41 -8 -64 -35z"/>
<path d="M7622 4013 c-34 -36 -150 -253 -168 -313 -4 -14 -44 -101 -89 -195
-59 -122 -87 -193 -99 -249 -9 -44 -17 -81 -19 -82 -17 -16 -158 -104 -166
-104 -27 0 12 96 84 207 31 47 55 93 53 102 -2 12 -22 19 -73 26 l-70 10 -15
48 c-9 26 -22 52 -30 57 -51 32 -80 -15 -80 -129 0 -69 -3 -82 -19 -91 -34
-17 -59 -11 -83 21 -49 66 -86 99 -110 99 -37 0 -103 -49 -147 -108 -111 -148
-115 -337 -6 -358 18 -3 43 -3 56 1 40 13 110 88 156 168 26 44 56 83 69 89
13 6 24 16 25 22 1 6 4 0 8 -13 6 -23 8 -22 61 28 50 47 90 65 90 40 0 -5 -17
-44 -37 -86 -26 -53 -38 -94 -41 -134 -4 -54 -2 -60 26 -89 19 -19 41 -30 58
-30 44 0 110 37 149 86 33 40 65 57 65 35 0 -5 12 -23 26 -40 22 -26 33 -31
70 -31 58 0 101 19 142 62 l33 35 31 -28 c62 -59 158 -28 239 77 34 45 45 53
48 39 9 -48 62 -92 132 -108 14 -4 89 0 165 8 243 26 511 30 648 10 115 -17
120 -17 133 1 25 34 11 69 -37 94 -56 30 -547 30 -725 1 -33 -6 -89 -12 -124
-13 -58 -2 -65 0 -87 25 -18 22 -24 40 -24 78 0 56 22 105 120 269 112 188
200 383 200 446 0 23 -38 54 -67 54 -31 0 -141 -114 -169 -175 -15 -31 -24
-58 -21 -61 3 -3 36 22 73 56 38 33 70 56 72 50 5 -15 -157 -325 -201 -385
-12 -16 -18 -18 -28 -7 -19 18 -60 15 -126 -9 -76 -28 -154 -109 -228 -234
-47 -80 -65 -100 -121 -140 -37 -25 -69 -43 -73 -40 -3 4 -6 32 -6 63 1 71 27
122 131 253 41 52 96 130 122 174 l47 80 1 115 c0 107 2 118 28 162 34 59 32
92 -7 96 -23 3 -37 -5 -65 -35z m-49 -323 c-9 -37 -97 -211 -122 -240 l-21
-25 10 30 c6 17 26 59 44 95 19 36 41 90 51 120 10 30 20 59 23 64 9 16 21
-19 15 -44z m277 -284 c0 -31 -23 -73 -87 -158 -51 -69 -70 -88 -89 -88 -14 0
-27 7 -31 15 -8 23 22 93 65 150 51 67 142 119 142 81z m-1120 -166 c0 -57
-23 -110 -65 -153 -39 -39 -55 -35 -55 12 0 48 12 81 52 144 18 29 37 47 49
47 16 0 19 -8 19 -50z"/>
<path d="M2927 4033 c-4 -3 -7 -29 -7 -57 0 -42 -14 -83 -81 -231 -44 -99
-103 -232 -130 -295 -69 -162 -70 -163 -214 -198 -67 -16 -158 -46 -204 -66
-46 -20 -85 -35 -87 -34 -5 6 270 549 307 608 45 70 69 131 69 175 0 77 -40
53 -123 -73 -82 -123 -439 -830 -466 -919 -10 -38 -40 -126 -66 -198 -53 -151
-67 -241 -40 -268 28 -29 54 -2 90 94 87 232 139 368 156 401 24 48 74 76 219
123 63 21 132 46 152 56 51 26 72 25 58 -1 -6 -11 -33 -73 -59 -138 -27 -64
-74 -171 -104 -237 -76 -167 -86 -246 -33 -281 47 -30 70 -1 102 131 9 39 32
106 51 150 19 44 55 134 80 200 25 66 65 154 90 196 24 43 55 105 69 140 14
34 46 103 71 153 45 90 152 336 180 412 18 52 4 114 -34 143 -27 22 -36 25
-46 14z"/>
<path d="M3920 3890 c0 -6 -23 -44 -51 -83 -104 -147 -216 -356 -284 -528 -35
-90 -42 -100 -114 -166 -113 -104 -129 -108 -146 -42 -8 34 5 60 119 229 206
305 289 509 224 554 -44 31 -73 21 -128 -46 -63 -74 -82 -104 -148 -233 -57
-110 -118 -247 -164 -370 -21 -56 -40 -88 -62 -105 -17 -14 -62 -53 -99 -87
-69 -63 -121 -88 -163 -77 -42 11 -36 32 19 68 171 111 261 258 200 327 -22
26 -68 30 -124 12 -59 -19 -111 -73 -179 -186 -38 -63 -44 -81 -47 -142 -4
-58 -1 -76 16 -103 27 -42 77 -72 122 -72 83 0 203 68 258 147 l34 48 16 -25
c74 -116 141 -117 271 -6 30 26 57 46 60 46 3 0 11 -15 18 -33 20 -55 47 -77
95 -77 45 0 133 36 156 64 32 39 49 39 82 1 21 -24 40 -35 59 -35 31 0 87 34
143 88 39 38 127 169 127 190 0 7 5 12 10 12 15 0 12 67 -5 99 -16 32 -65 77
-94 86 -33 10 -95 -12 -130 -47 -46 -45 -103 -132 -130 -198 -23 -57 -69 -100
-145 -136 -40 -20 -63 -14 -75 19 -16 42 4 92 92 234 84 135 247 456 247 484
-1 8 -6 24 -13 36 -15 27 -67 68 -67 53z m-383 -293 c-30 -56 -66 -120 -81
-142 -16 -22 -39 -61 -52 -87 -22 -43 -44 -69 -44 -52 0 4 34 72 75 152 78
149 147 259 153 242 2 -6 -21 -56 -51 -113z m282 -63 c-53 -101 -100 -176
-106 -170 -5 5 89 184 120 229 35 52 28 21 -14 -59z m295 -210 c24 -24 19 -74
-12 -121 -33 -50 -99 -123 -112 -123 -15 0 -22 39 -15 81 9 55 90 173 122 179
1 0 9 -7 17 -16z m-1064 -74 c0 -32 -124 -150 -157 -150 -22 0 -14 12 55 90
57 63 102 90 102 60z"/>
<path d="M4725 3252 c-52 -33 -88 -90 -93 -146 -4 -46 -1 -55 30 -94 47 -60
84 -82 136 -82 56 0 90 19 142 77 41 47 42 49 37 108 -2 33 -7 67 -11 75 -5
11 2 16 26 17 77 6 116 6 140 0 25 -7 26 -10 30 -95 3 -78 6 -93 30 -124 59
-78 170 -87 247 -22 85 73 103 165 47 239 -43 56 -76 68 -170 62 -99 -7 -384
-7 -486 -1 -62 4 -80 2 -105 -14z m118 -123 c19 -26 10 -58 -19 -71 -43 -20
-81 37 -48 73 22 25 49 24 67 -2z m526 7 c20 -24 9 -69 -21 -86 -34 -19 -62
-5 -66 33 -6 48 59 87 87 53z"/>
<path d="M4140 2483 c-12 -16 -40 -66 -62 -111 l-41 -84 -56 106 c-56 106 -56
106 -94 106 l-37 0 2 -197 3 -198 39 -3 39 -3 -5 115 -4 116 40 -73 c23 -40
52 -87 66 -105 l24 -33 30 58 c16 32 38 81 47 108 l18 50 0 -80 c1 -44 4 -97
7 -117 6 -35 9 -38 39 -38 l32 0 7 195 c4 107 5 199 1 205 -3 5 -21 10 -40 10
-25 0 -39 -7 -55 -27z"/>
<path d="M4500 2484 c-5 -13 -25 -61 -44 -106 -43 -105 -86 -233 -86 -257 0
-15 7 -18 38 -17 33 1 38 5 48 36 11 35 11 35 85 42 41 4 77 4 81 0 3 -4 10
-23 15 -42 9 -33 12 -35 56 -38 28 -2 47 1 47 8 0 5 -18 52 -39 103 -22 50
-57 135 -79 187 -39 92 -42 95 -77 101 -32 5 -38 3 -45 -17z m86 -200 c6 -23
4 -24 -41 -24 -33 0 -46 4 -43 13 3 6 13 36 24 65 l19 54 17 -42 c10 -24 21
-53 24 -66z"/>
<path d="M3433 2484 c-5 -14 4 -374 10 -380 1 -1 62 -4 135 -6 l132 -3 0 43 0
42 -96 0 -95 0 3 38 3 37 77 3 c64 2 78 6 83 21 13 42 -3 51 -86 51 l-79 0 0
40 0 40 89 0 c97 0 101 3 101 61 l0 29 -135 0 c-116 0 -137 -2 -142 -16z"/>
<path d="M4854 2299 c3 -111 7 -203 9 -204 1 -1 46 2 100 6 110 8 143 23 190
82 26 31 32 49 35 101 5 70 -7 102 -55 150 -41 42 -76 53 -187 61 l-99 8 7
-204z m196 91 c54 -28 73 -97 40 -148 -24 -39 -59 -54 -114 -50 l-41 3 -3 94
c-1 52 0 101 3 108 4 11 16 13 52 7 27 -3 55 -10 63 -14z"/>
<path d="M5610 2418 c-50 -108 -106 -247 -115 -286 l-7 -32 45 0 c44 0 45 1
59 41 l13 40 76 4 76 4 14 -46 c14 -45 15 -46 57 -47 34 -1 42 2 42 16 0 22
-127 357 -142 375 -6 7 -26 13 -45 13 -33 0 -36 -3 -73 -82z m90 -78 c11 -21
20 -48 20 -60 0 -17 -6 -20 -40 -20 -22 0 -40 4 -40 9 0 12 32 111 36 111 2 0
13 -18 24 -40z"/>
<path d="M5997 2433 c-9 -87 -9 -194 -1 -272 l7 -61 37 0 36 0 -3 118 -4 117
49 -92 c72 -137 69 -135 109 -66 18 32 41 83 51 113 l17 55 6 -120 c4 -66 7
-122 8 -125 0 -3 18 -4 39 -2 l37 4 -5 196 -5 197 -50 0 -49 0 -36 -81 c-19
-44 -39 -93 -45 -109 -10 -27 -11 -26 -42 51 -52 126 -66 144 -111 144 l-39 0
-6 -67z"/>
<path d="M6540 2347 c0 -85 3 -175 6 -201 7 -46 7 -46 46 -46 l38 0 -2 198 -3
197 -42 3 -43 3 0 -154z"/>
<path d="M6781 2306 c2 -107 6 -197 9 -199 3 -3 23 -7 45 -9 l40 -3 3 63 c3
62 3 63 30 60 24 -3 62 -45 101 -117 7 -11 18 -12 54 -5 l46 9 -45 66 -44 67
35 35 c32 32 35 40 35 90 0 100 -60 137 -224 137 l-88 0 3 -194z m205 91 c1
-1 5 -13 8 -27 10 -39 -7 -53 -68 -58 l-56 -4 0 45 c0 35 4 47 18 51 15 4 93
-1 98 -7z"/>
<path d="M5205 1810 c-3 -5 -1 -19 6 -31 9 -18 17 -20 47 -16 43 7 58 27 35
45 -20 14 -79 16 -88 2z"/>
</g>
</svg>
